


<svg xmlns="http://www.w3.org/2000/svg" xmlns:xlink="http://www.w3.org/1999/xlink" viewBox="0 0 646.05 874.39"><path fill="#C3C8FF" d="M39.87,0H606.19a40,40,0,0,1,39.86,39.87V294.23l-3.88,3.15-83.68,67.84,87.56,71V690.57a40,40,0,0,1-39.86,39.87H39.87A40,40,0,0,1,0,690.57V39.87A40,40,0,0,1,39.87,0ZM153.33,146.35a24,24,0,0,0-23.89,23.89v390a24,24,0,0,0,23.89,23.88H492.72a24,24,0,0,0,23.89-23.88V443H280.12a9.63,9.63,0,0,1-9.6-9.6V297a9.63,9.63,0,0,1,9.6-9.6H516.61V170.24a24,24,0,0,0-23.89-23.89Z"></path></svg>