<?xml version="1.0" standalone="no"?>
<!DOCTYPE svg PUBLIC "-//W3C//DTD SVG 20010904//EN"
 "http://www.w3.org/TR/2001/REC-SVG-20010904/DTD/svg10.dtd">
<svg version="1.0" xmlns="http://www.w3.org/2000/svg"
 width="512.000000pt" height="512.000000pt" viewBox="0 0 512.000000 512.000000"
 preserveAspectRatio="xMidYMid meet">

<g transform="translate(0.000000,512.000000) scale(0.100000,-0.100000)"
fill="#C3C8FF" stroke="none">
<path d="M2355 4903 c-168 -21 -310 -79 -445 -182 -19 -15 -64 -35 -100 -45
-79 -21 -143 -61 -203 -125 -103 -110 -117 -175 -117 -544 0 -298 4 -328 51
-361 13 -9 40 -16 60 -16 43 0 37 -4 337 236 l202 163 68 -41 c105 -64 335
-172 462 -216 244 -85 475 -129 727 -139 235 -9 238 -6 230 317 -4 177 -8 229
-26 295 -44 166 -127 302 -259 426 -133 125 -305 206 -484 229 -76 9 -434 12
-503 3z"/>
<path d="M1956 3610 c-189 -151 -252 -190 -308 -190 -25 0 -23 -26 12 -121 55
-151 138 -280 243 -376 424 -387 1140 -308 1450 160 67 100 151 307 133 325
-4 3 -66 9 -139 14 -417 24 -731 115 -1187 345 -3 1 -94 -69 -204 -157z"/>
<path d="M1406 3008 c-138 -71 -222 -145 -273 -244 -49 -93 -63 -161 -63 -307
0 -119 1 -129 18 -121 9 4 323 9 697 12 607 4 674 6 621 19 -84 19 -191 73
-261 132 -33 28 -82 62 -110 77 -178 94 -339 237 -445 396 -34 51 -63 94 -64
95 0 1 -55 -26 -120 -59z"/>
<path d="M3534 2978 c-103 -158 -271 -308 -449 -402 -27 -15 -76 -48 -108 -75
-77 -64 -159 -107 -249 -130 l-73 -19 680 -4 c374 -3 688 -8 698 -12 16 -8 17
2 17 121 0 146 -14 214 -63 307 -51 99 -135 173 -274 244 l-119 61 -60 -91z"/>
<path d="M1084 2110 c-67 -27 -129 -81 -160 -142 -51 -101 -52 -98 41 -842 61
-487 91 -691 104 -721 23 -52 74 -110 123 -141 88 -56 49 -55 1394 -52 1400 3
1286 -4 1383 84 94 85 90 65 186 834 59 468 84 699 80 730 -14 93 -88 194
-177 242 l-43 23 -1440 2 c-1409 2 -1441 2 -1491 -17z m1622 -653 c155 -79
215 -278 133 -439 -92 -181 -358 -218 -505 -71 -113 113 -119 317 -12 438 68
78 138 106 253 101 62 -2 91 -8 131 -29z"/>
<path d="M2514 1271 c-34 -15 -54 -52 -54 -99 0 -93 106 -138 171 -73 38 38
41 106 6 146 -24 29 -86 42 -123 26z"/>
</g>
</svg>
