<?xml version="1.0" standalone="no"?>
<!DOCTYPE svg PUBLIC "-//W3C//DTD SVG 20010904//EN"
 "http://www.w3.org/TR/2001/REC-SVG-20010904/DTD/svg10.dtd">
<svg version="1.0" xmlns="http://www.w3.org/2000/svg"
 width="47.000000pt" height="59.000000pt" viewBox="0 0 47.000000 59.000000"
 preserveAspectRatio="xMidYMid meet">

<g transform="translate(0.000000,59.000000) scale(0.100000,-0.100000)"
fill="#C3C8FF" stroke="none">
<path d="M150 571 c0 -10 9 -21 20 -24 19 -5 20 -14 20 -166 l0 -161 -35 0
-35 0 0 125 c0 104 2 125 15 125 8 0 15 9 15 20 0 18 -7 20 -75 20 -68 0 -75
-2 -75 -20 0 -11 7 -20 15 -20 13 0 15 -23 15 -143 l0 -143 33 -32 c28 -27 41
-32 80 -32 46 0 47 -1 47 -30 0 -23 -4 -30 -20 -30 -16 0 -20 -7 -20 -30 l0
-30 80 0 80 0 0 30 c0 20 -5 30 -15 30 -10 0 -15 10 -15 30 0 29 1 30 48 30
40 0 53 5 75 28 27 28 27 29 27 175 0 140 1 147 20 147 13 0 20 7 20 20 0 18
-7 20 -80 20 -73 0 -80 -2 -80 -20 0 -11 7 -20 15 -20 13 0 15 -21 15 -125 l0
-125 -30 0 -30 0 0 165 c0 140 2 165 15 165 8 0 15 9 15 20 0 18 -7 20 -80 20
-72 0 -80 -2 -80 -19z"/>
</g>
</svg>
