<svg width="297" height="296" viewBox="0 0 297 296" fill="none" xmlns="http://www.w3.org/2000/svg">
<g clip-path="url(#clip0_16524_53535)">
<path fill-rule="evenodd" clip-rule="evenodd" d="M138.233 196.386L143.528 221.741L133.427 222.168L127.994 195.292L118.258 188.7C103.688 196.615 65.4929 208.383 34.0563 187.997C2.61977 167.61 -13.7483 129.595 -10.8858 117.412C-6.64233 111.801 48.4565 105.039 76.5464 117.814C104.636 130.589 122.827 155.988 122.732 179.907L131.157 184.162L135.451 189.082L134.276 178.29C124.775 156.338 132.834 126.977 152.298 103.031C174.159 76.1345 223.099 64.4277 233.311 68.4639C239.896 76.5525 239.856 119.716 218.979 150.829C198.102 181.942 158.801 187.332 142.291 185.789L137.494 189.97L138.233 196.386Z" fill="#C3C8FF"/>
<path d="M140.333 179.965L134.217 173.303L125.687 169.262C125.179 145.348 104.555 124.015 76.1519 111.952C47.7489 99.8888 -5.36242 104.438 -9.46307 110.154C-12.0176 122.406 8.90267 159.997 40.8431 179.584C72.7836 199.172 107.07 186.445 121.437 178.165L133.135 184.464L139.244 211.194L147.532 210.559L140.333 179.965Z" fill="#C3C8FF"/>
<path d="M142.264 205.138L137.183 167.355C127.132 145.65 136.655 118.553 156.902 95.2656C182.617 65.6878 217.71 53.9902 233.419 55.0683C237.506 68.3874 239.454 107.939 219.368 139.568C198.857 171.867 161.928 175.776 145.384 174.651L140.695 178.951L144.14 203.418L142.264 205.138Z" fill="#C3C8FF"/>
<path d="M120.579 178.03L108.411 172.13L59.9118 147.648C59.9118 147.648 55.1237 144.785 57.9681 140.44C61.2155 135.641 66.0583 138.258 66.0583 138.258L124.926 166.339L134.939 172.221L141.248 163.521L149.162 151.853L180.289 111.92C180.289 111.92 184.282 106.847 188.38 109.738C190.965 111.033 192.222 114.098 190.323 116.946C185.404 124.324 159.257 157.104 159.257 157.104L151.766 168.547L143.482 180.616L150.776 206.744L150.776 206.54C151.566 209.468 151.13 206.445 147.843 207.331L151.073 207.847C148.039 208.665 140.189 212.74 139.399 209.813C138.609 206.885 138.69 209.799 141.976 208.913L139.399 209.813L131.867 183.684L120.579 178.03Z" fill="#202450"/>
<ellipse rx="93.1647" ry="93.1646" transform="matrix(-1 0 0 1 151.218 299.03)" fill="white"/>
<ellipse rx="93.1647" ry="93.1646" transform="matrix(-1 0 0 1 151.218 304.61)" fill="url(#paint0_linear_16524_53535)"/>
<ellipse rx="93.1647" ry="93.1646" transform="matrix(-1 0 0 1 151.218 299.03)" fill="#C3C8FF"/>
<rect x="138.02" y="232.188" width="16.8265" height="33.4372" rx="8.41325" fill="#202450"/>
<rect x="183.34" y="232.188" width="16.8265" height="33.4372" rx="8.41325" fill="#202450"/>
</g>
<defs>
<linearGradient id="paint0_linear_16524_53535" x1="187.361" y1="94.2745" x2="117.623" y2="17.5622" gradientUnits="userSpaceOnUse">
<stop stop-color="#DBE4FD"/>
<stop offset="1" stop-color="#DBE4FD" stop-opacity="0"/>
</linearGradient>
<clipPath id="clip0_16524_53535">
<rect width="295.141" height="295.141" fill="white" transform="matrix(-1 0 0 1 296.004 0)"/>
</clipPath>
</defs>
</svg>
