<svg width="22" height="32" viewBox="0 0 22 32" fill="none" xmlns="http://www.w3.org/2000/svg">
<path d="M14.5665 3.75H5C2.79086 3.75 1 5.54086 1 7.75V24.25C1 26.4591 2.79086 28.25 5 28.25H17C19.2091 28.25 21 26.4591 21 24.25V9.97972C21 8.85819 20.5292 7.78818 19.7023 7.03052L17.2688 4.8008C16.5311 4.12492 15.567 3.75 14.5665 3.75Z" stroke="#9CA4FF"/>
<path d="M7.79 20.15C7.07 20.15 6.44833 19.9933 5.925 19.68C5.405 19.3667 5.00333 18.9283 4.72 18.365C4.44 17.8017 4.3 17.1467 4.3 16.4C4.3 15.6533 4.44 14.9983 4.72 14.435C5.00333 13.8717 5.405 13.4333 5.925 13.12C6.44833 12.8067 7.07 12.65 7.79 12.65C8.61667 12.65 9.31 12.855 9.87 13.265C10.4333 13.675 10.83 14.23 11.06 14.93L9.69 15.31C9.55667 14.8733 9.33167 14.535 9.015 14.295C8.69833 14.0517 8.29 13.93 7.79 13.93C7.33333 13.93 6.95167 14.0317 6.645 14.235C6.34167 14.4383 6.11333 14.725 5.96 15.095C5.80667 15.465 5.73 15.9 5.73 16.4C5.73 16.9 5.80667 17.335 5.96 17.705C6.11333 18.075 6.34167 18.3617 6.645 18.565C6.95167 18.7683 7.33333 18.87 7.79 18.87C8.29 18.87 8.69833 18.7483 9.015 18.505C9.33167 18.2617 9.55667 17.9233 9.69 17.49L11.06 17.87C10.83 18.57 10.4333 19.125 9.87 19.535C9.31 19.945 8.61667 20.15 7.79 20.15ZM14.0156 20L11.8156 12.8H13.2156L15.0156 18.72L16.8456 12.8H18.2456L16.0456 20H14.0156Z" fill="#9CA4FF"/>
</svg>
