<?xml version="1.0" standalone="no"?>
<!DOCTYPE svg PUBLIC "-//W3C//DTD SVG 20010904//EN"
 "http://www.w3.org/TR/2001/REC-SVG-20010904/DTD/svg10.dtd">
<svg version="1.0" xmlns="http://www.w3.org/2000/svg"
 width="287.000000pt" height="346.000000pt" viewBox="0 0 287.000000 346.000000"
 preserveAspectRatio="xMidYMid meet">

<g transform="translate(0.000000,346.000000) scale(0.100000,-0.100000)"
fill="#C3C8FF" stroke="none">
<path d="M525 3317 c-60 -72 -170 -203 -243 -290 -82 -97 -130 -162 -126 -170
4 -7 27 -34 50 -62 46 -55 103 -162 127 -240 41 -133 31 -207 -54 -402 -94
-217 -103 -254 -104 -418 0 -157 17 -236 79 -369 53 -114 164 -228 266 -275
34 -15 33 -15 -110 -22 -80 -4 -165 -10 -190 -12 -66 -8 -161 -46 -192 -78
l-28 -27 0 -233 0 -232 34 -31 c38 -35 412 -256 466 -275 19 -7 62 -26 95 -43
38 -18 68 -26 79 -22 21 8 36 44 36 85 0 16 2 29 5 29 3 0 31 -13 63 -29 90
-45 290 -127 367 -150 39 -11 137 -28 218 -38 140 -16 156 -16 280 0 165 22
270 52 411 120 87 42 115 51 128 43 13 -7 26 -6 53 7 20 9 37 17 39 17 2 0 7
-16 10 -35 11 -56 37 -62 109 -26 116 57 432 251 454 279 22 26 23 34 23 254
0 147 -4 236 -11 252 -14 31 -111 83 -170 92 -24 3 -69 13 -99 22 -30 8 -86
18 -124 21 l-70 6 55 45 c161 131 250 338 250 581 -1 142 -18 209 -109 419
-64 147 -67 159 -70 245 -3 73 0 103 18 155 35 103 68 166 126 238 30 37 54
71 54 75 0 4 -52 69 -116 145 -63 75 -173 205 -242 289 -70 84 -131 152 -135
152 -5 1 -20 -8 -34 -19 l-25 -20 -37 42 -37 41 -59 -40 c-140 -95 -277 -141
-378 -129 -40 5 -66 17 -105 46 -45 35 -55 38 -76 29 -21 -10 -31 -7 -70 21
l-45 33 -40 -32 c-63 -50 -147 -83 -237 -95 -83 -10 -83 -10 -146 23 -35 18
-84 49 -110 68 -40 29 -50 32 -66 22 -17 -11 -27 -8 -69 19 -27 18 -52 32 -54
31 -2 0 -53 -60 -114 -132z m195 62 c74 -49 190 -97 258 -108 112 -17 247 18
351 91 l34 24 56 -36 c31 -20 76 -45 100 -54 65 -25 174 -36 245 -25 67 11
194 67 275 122 l53 35 230 -271 c126 -150 232 -277 235 -284 3 -7 -16 -38 -41
-69 -62 -76 -123 -205 -143 -301 -23 -112 -11 -172 75 -373 39 -92 77 -199 86
-242 54 -262 -40 -569 -217 -710 -80 -63 -230 -130 -479 -212 -242 -79 -359
-133 -434 -199 -30 -26 -49 -37 -52 -29 -7 21 -126 100 -204 136 -40 19 -169
66 -286 104 -117 39 -256 93 -310 119 -234 114 -362 339 -362 637 0 145 25
240 117 436 49 106 63 160 63 245 0 131 -48 259 -145 384 l-54 69 122 144 c67
79 173 205 236 280 68 81 119 134 125 130 6 -4 36 -23 66 -43z m1750 -2513 c0
-8 -5 -16 -11 -18 -8 -3 -7 -14 5 -35 10 -20 12 -34 6 -38 -15 -10 -12 -28 4
-22 8 3 17 -1 20 -9 6 -17 2 -17 -45 -4 -45 13 -69 37 -50 50 15 9 6 30 -13
30 -7 0 -20 -6 -29 -12 -16 -12 -15 -17 8 -67 26 -55 27 -69 3 -55 -7 5 -23 7
-35 6 -12 -2 -30 1 -40 6 -24 13 -43 4 -43 -19 0 -22 -22 -25 -39 -5 -9 11 -6
18 19 36 16 12 34 19 39 16 5 -3 8 2 7 12 0 11 7 18 22 20 26 4 29 -6 5 -24
-17 -12 -17 -13 0 -20 28 -10 40 8 26 39 -16 34 -30 34 -96 -3 -30 -17 -58
-28 -63 -25 -5 3 -11 -4 -15 -15 -4 -13 4 -34 24 -64 35 -50 37 -56 18 -56 -7
0 -27 20 -44 43 -31 45 -58 56 -68 29 -3 -9 1 -22 9 -30 12 -12 18 -13 30 -3
11 9 16 9 22 0 4 -6 0 -16 -10 -21 -9 -5 -16 -18 -16 -28 0 -22 -4 -23 -37
-14 -16 4 -21 13 -20 32 2 22 -2 27 -20 27 -13 0 -23 4 -24 9 -1 15 162 117
269 167 92 43 105 47 119 34 19 -20 23 -19 18 5 -2 11 3 24 13 30 24 13 32 12
32 -4z m-2037 -103 c89 -43 117 -63 84 -63 -7 0 -23 -20 -35 -46 -22 -44 -49
-53 -36 -12 7 24 -14 42 -32 27 -9 -7 -16 -4 -23 10 -14 26 -14 31 3 31 8 0
17 7 20 16 7 19 8 18 -20 32 -19 10 -23 6 -43 -41 -16 -38 -24 -48 -30 -38 -5
8 -7 20 -4 27 2 6 0 15 -6 19 -17 10 -13 28 4 21 9 -3 19 3 25 15 9 15 7 21
-6 26 -11 4 -20 1 -22 -6 -3 -8 -12 -21 -22 -31 -12 -12 -15 -22 -8 -34 5 -9
7 -22 5 -29 -3 -7 -14 10 -26 36 -25 59 -26 61 -4 53 9 -4 20 -1 25 6 12 19
10 28 -7 28 -8 0 -15 7 -15 14 0 18 21 10 173 -61z m196 -49 c12 -15 21 -39
21 -55 0 -24 11 -34 100 -86 97 -56 116 -73 85 -73 -8 0 -25 -20 -37 -45 -12
-25 -26 -45 -30 -45 -11 0 -10 28 2 50 8 15 6 21 -10 30 -27 14 -43 3 -37 -26
2 -13 0 -24 -5 -24 -5 0 -8 17 -6 38 3 32 6 37 28 36 14 -1 33 -5 44 -9 35
-15 12 15 -32 41 l-42 25 -28 -45 c-29 -48 -42 -57 -42 -28 0 9 -9 23 -21 30
-12 8 -19 21 -17 35 1 12 -1 28 -6 35 -14 24 2 25 33 2 35 -24 40 -41 11 -33
-14 4 -20 0 -20 -11 0 -23 36 -20 54 6 15 21 13 23 -34 54 -27 18 -53 35 -59
38 -5 3 -22 -14 -38 -39 -15 -25 -31 -45 -35 -45 -16 0 -7 33 18 65 14 19 23
39 20 44 -8 12 33 61 50 61 7 0 22 -12 33 -26z m359 -112 c3 -26 -1 -34 -23
-44 -22 -10 -34 -7 -93 23 l-67 34 -3 58 -3 59 93 -49 c86 -44 93 -51 96 -81z
m942 75 l0 -53 -52 -31 c-72 -43 -104 -50 -128 -28 -24 22 -26 48 -5 65 12 10
172 97 183 99 1 1 2 -23 2 -52z m-1718 -18 c34 -11 84 -32 112 -47 28 -15 54
-28 59 -30 4 -2 4 5 1 15 -3 11 2 8 16 -9 12 -16 28 -28 36 -28 19 0 18 10 -3
26 -21 14 -13 27 10 18 21 -8 30 -34 16 -50 -9 -11 -7 -15 5 -20 35 -13 13
-19 -61 -16 -87 4 -85 13 -12 -78 19 -25 39 -50 43 -57 7 -12 -126 47 -266
119 -62 32 -85 50 -92 71 -13 36 2 78 34 94 32 16 30 17 102 -8z m2428 -16
c22 -28 21 -63 -3 -91 -10 -13 -339 -182 -352 -182 -3 0 19 31 50 69 30 37 55
71 55 75 0 3 -32 6 -72 6 l-72 0 48 30 c116 74 222 118 283 119 34 1 46 -4 63
-26z m-645 -42 c-3 -12 6 -38 24 -70 26 -44 28 -51 13 -51 -10 0 -27 18 -42
45 -14 25 -30 45 -37 45 -25 0 -23 20 4 34 37 20 46 20 38 -3z m-85 -35 c0 -8
-5 -16 -11 -18 -6 -2 1 -10 16 -18 22 -12 28 -12 35 -1 4 8 13 10 19 7 15 -10
4 -26 -17 -26 -10 0 -18 -8 -19 -19 -1 -16 6 -21 35 -24 27 -3 22 -4 -20 -5
-56 -2 -84 12 -57 28 10 7 10 11 -1 24 -12 15 -15 15 -30 1 -32 -29 -30 -1 2
32 35 36 48 41 48 19z m-360 -22 c0 -8 -7 -14 -15 -14 -12 0 -15 -13 -15 -60
0 -63 -16 -84 -22 -27 -2 26 -7 31 -23 29 -11 -2 -23 -9 -27 -15 -5 -9 -12 -7
-24 5 -23 23 -9 38 37 38 28 0 39 4 39 15 0 12 -13 15 -60 15 l-60 0 0 -66 c0
-58 -2 -65 -15 -54 -10 8 -15 31 -15 66 0 47 -2 54 -20 54 -18 0 -20 -7 -20
-66 0 -58 -2 -65 -15 -54 -8 7 -15 25 -15 41 0 19 -5 29 -15 29 -9 0 -12 -6
-8 -16 4 -11 -2 -23 -18 -35 -20 -15 -21 -19 -6 -19 9 0 17 -4 17 -10 0 -5 -6
-10 -13 -10 -14 0 -57 52 -57 70 0 15 20 12 26 -5 9 -21 24 -19 24 4 0 10 -7
21 -15 25 -29 11 -15 26 25 26 22 0 40 5 40 10 0 6 -24 10 -54 10 -50 0 -74 9
-60 23 3 3 90 5 195 5 156 0 189 -2 189 -14z"/>
<path d="M469 3133 c-107 -125 -200 -235 -207 -244 -11 -16 -7 -25 28 -71 46
-60 101 -171 124 -249 22 -71 20 -190 -3 -275 -10 -38 -39 -112 -64 -164 -57
-121 -82 -202 -97 -318 -31 -241 60 -479 234 -610 99 -75 176 -107 451 -186
195 -57 281 -97 363 -171 l62 -57 76 61 c100 81 120 90 324 151 406 120 506
176 616 341 141 213 142 516 1 796 -84 165 -102 324 -52 460 29 81 80 177 126
234 l30 39 -206 240 c-113 132 -208 240 -211 240 -3 0 -24 -13 -47 -28 -77
-52 -167 -81 -307 -102 -88 -12 -215 18 -290 69 l-60 41 -52 -39 c-60 -46
-159 -75 -253 -74 -114 1 -277 55 -361 119 l-31 24 -194 -227z m333 -188 c3
-136 2 -145 -16 -145 -12 0 -16 5 -12 16 3 9 6 74 6 145 0 179 18 166 22 -16z
m480 87 c2 -15 1 -37 -2 -49 -8 -34 -35 -5 -36 40 0 29 3 37 17 37 11 0 18
-10 21 -28z m-352 -101 c0 -89 4 -108 41 -212 22 -62 42 -115 43 -117 2 -1 3
11 2 27 -1 16 -4 27 -7 25 -6 -3 -29 63 -29 85 0 8 6 8 20 -1 17 -11 22 -11
29 0 5 8 12 -7 19 -40 10 -41 10 -53 0 -61 -9 -6 -8 -7 5 -3 12 4 17 0 17 -14
0 -12 -7 -20 -17 -20 -15 0 -14 -2 2 -14 11 -8 23 -12 27 -10 5 3 8 1 8 -5 0
-5 -8 -15 -17 -21 -16 -10 -16 -10 3 -5 17 4 23 -2 37 -48 20 -62 20 -67 8
-67 -5 0 -12 8 -14 18 -4 14 -5 14 -6 1 0 -9 5 -22 13 -28 30 -25 25 27 -13
141 -47 138 -55 177 -47 222 7 36 42 57 53 30 14 -36 23 -6 26 89 2 91 3 86 5
-40 2 -115 5 -141 16 -137 13 5 50 -73 110 -232 22 -59 30 -70 49 -70 12 1 25
5 29 11 4 5 9 7 12 4 6 -6 13 -133 15 -261 l1 -78 471 -2 472 -3 34 -89 c59
-156 76 -313 48 -434 -28 -117 -62 -182 -133 -255 -100 -102 -232 -165 -482
-231 -205 -54 -280 -84 -363 -142 -26 -19 -49 -34 -52 -34 -3 0 -5 268 -5 595
l0 595 -438 0 -439 0 -15 38 c-14 36 -14 42 4 77 l20 38 24 -42 c25 -41 54
-55 54 -25 0 11 6 14 20 9 17 -5 20 -2 20 22 0 15 -9 57 -20 92 -11 36 -17 74
-14 85 2 12 -7 54 -21 95 -14 41 -25 82 -25 92 0 9 -7 30 -15 45 -17 33 -20
68 -5 59 5 -3 8 0 6 7 -2 7 -10 41 -17 76 -9 46 -16 62 -25 58 -16 -6 -17 -5
-14 99 2 110 20 123 20 14 0 -53 5 -92 13 -104 7 -11 28 -69 45 -130 36 -121
75 -243 103 -320 15 -41 25 -53 52 -63 49 -18 50 -17 43 40 -6 46 -5 50 8 38
23 -18 21 -6 -29 139 -49 143 -50 145 -35 136 13 -8 10 18 -16 120 -12 48 27
-34 47 -100 49 -157 84 -249 87 -230 7 46 11 48 37 31 32 -21 38 -20 25 5 -7
11 -9 28 -5 36 3 9 -3 44 -14 77 -10 34 -19 68 -18 76 0 8 -3 33 -6 55 -4 22
-4 33 0 25 3 -8 17 -39 30 -69 14 -29 31 -78 39 -109 8 -30 19 -62 25 -71 9
-14 10 -14 5 2 -18 57 -18 64 3 70 21 5 30 27 10 27 -5 0 -8 -4 -5 -9 3 -5 -3
-11 -14 -14 -30 -8 -27 40 3 54 13 6 24 16 25 22 0 7 2 19 3 27 1 8 1 30 1 49
-2 24 -6 32 -16 28 -21 -8 -23 5 -18 140 5 145 22 156 22 14z m964 30 c3 -5
-1 -14 -9 -21 -8 -7 -15 -18 -15 -26 0 -7 -9 -18 -19 -24 -25 -13 -31 -13 -31
0 0 6 6 10 14 10 8 0 20 16 27 35 13 35 23 43 33 26z m-324 -5 c0 -3 -4 -8
-10 -11 -5 -3 -10 -1 -10 4 0 6 5 11 10 11 6 0 10 -2 10 -4z m200 -5 c0 -12
-28 -22 -34 -12 -3 5 -3 11 1 15 9 9 33 7 33 -3z m330 5 c0 -3 -4 -8 -10 -11
-5 -3 -10 -1 -10 4 0 6 5 11 10 11 6 0 10 -2 10 -4z m-130 -61 c-7 -8 -18 -15
-24 -15 -6 0 -2 7 8 15 25 19 32 19 16 0z m-234 -33 c-15 -15 -15 -15 -4 10 7
15 15 23 17 17 2 -6 -4 -18 -13 -27z m274 29 c0 -5 -14 -19 -31 -32 -23 -16
-33 -19 -42 -10 -8 8 -8 11 2 11 7 0 24 9 38 20 29 23 33 24 33 11z m-333 -21
c14 -11 21 -20 15 -20 -6 0 -14 5 -17 10 -3 6 -17 7 -31 4 -23 -6 -32 5 -17
19 11 11 24 8 50 -13z m161 -27 c-10 -2 -26 -2 -35 0 -10 3 -2 5 17 5 19 0 27
-2 18 -5z m-198 -88 c-7 -8 -17 -12 -23 -8 -6 4 -3 9 9 14 27 11 28 11 14 -6z
m400 5 c0 -5 -8 -10 -17 -10 -15 0 -16 2 -3 10 19 12 20 12 20 0z m-460 -9 c0
-6 -4 -13 -10 -16 -5 -3 -10 1 -10 9 0 9 5 16 10 16 6 0 10 -4 10 -9z m-660
-72 c0 -10 -6 -19 -14 -19 -8 0 -16 -6 -19 -12 -2 -7 -6 -1 -9 15 -3 15 -1 27
3 27 5 0 9 -4 9 -10 0 -5 5 -10 11 -10 6 0 9 9 6 20 -3 11 -1 18 4 14 5 -3 9
-14 9 -25z m700 -44 c0 -12 -47 -45 -65 -45 -21 0 30 48 63 59 1 1 2 -6 2 -14z
m67 -33 c14 -19 18 -34 13 -43 -7 -10 -13 -4 -25 23 -23 58 -20 63 12 20z
m143 -10 c0 -7 -4 -11 -9 -8 -5 4 -12 0 -14 -6 -4 -8 -6 -7 -6 4 -1 9 2 24 5
33 5 13 8 14 15 3 5 -7 9 -19 9 -26z m162 -7 c-9 -25 -20 -45 -25 -45 -4 0 -3
9 3 19 5 11 14 31 20 45 5 14 12 26 14 26 3 0 -2 -20 -12 -45z m-33 -17 c-8
-14 -14 -18 -17 -10 -4 13 17 46 25 38 3 -2 -1 -15 -8 -28z m-149 -18 c0 -5
-4 -10 -10 -10 -5 0 -10 5 -10 10 0 6 5 10 10 10 6 0 10 -4 10 -10z m-160 -44
c0 -2 -7 -9 -15 -16 -13 -11 -14 -10 -9 4 5 14 24 23 24 12z m190 -126 c0 -5
-11 -10 -25 -10 -14 0 -25 5 -25 10 0 6 11 10 25 10 14 0 25 -4 25 -10z m-280
-20 c0 -5 -5 -10 -11 -10 -5 0 -7 5 -4 10 3 6 8 10 11 10 2 0 4 -4 4 -10z
m540 0 c0 -5 -5 -10 -11 -10 -5 0 -7 5 -4 10 3 6 8 10 11 10 2 0 4 -4 4 -10z
m-285 -10 c-3 -5 -10 -10 -16 -10 -5 0 -9 5 -9 10 0 6 7 10 16 10 8 0 12 -4 9
-10z m-1122 -375 c12 -14 36 -28 52 -31 17 -3 48 -14 70 -24 22 -10 49 -21 59
-24 10 -4 16 -9 13 -13 -11 -10 14 -33 37 -33 17 0 18 -2 6 -10 -8 -5 -11 -10
-5 -10 5 0 4 -5 -3 -12 -9 -9 -5 -17 16 -35 18 -15 22 -23 12 -23 -10 0 -5 -9
14 -25 21 -18 33 -22 41 -15 15 12 29 -15 18 -32 -3 -7 -1 -8 5 -4 8 4 12 0
12 -10 0 -16 1 -16 15 2 14 18 15 18 6 -6 -7 -21 -2 -31 40 -72 27 -27 55 -48
63 -48 19 0 28 -27 10 -34 -8 -3 -14 -15 -14 -26 0 -27 -25 -20 -96 26 -28 19
-56 34 -63 34 -6 0 -11 6 -11 13 0 8 -18 28 -40 46 -104 83 -302 336 -292 373
6 23 9 23 35 -7z m367 -145 c0 -5 -2 -10 -4 -10 -3 0 -8 5 -11 10 -3 6 -1 10
4 10 6 0 11 -4 11 -10z m-269 -204 c-20 -19 -22 -19 -38 -4 -16 16 -15 18 8
26 39 15 55 3 30 -22z m-111 -91 c0 -10 -10 -15 -27 -15 -26 0 -26 1 -7 15 25
19 34 19 34 0z m56 -40 c-3 -8 -13 -15 -22 -15 -10 0 -14 5 -11 14 3 8 3 17
-1 19 -4 2 -2 2 5 1 7 -2 16 2 20 8 9 16 17 -7 9 -27z m101 0 c10 -32 9 -35
-9 -35 -11 0 -16 -4 -12 -11 3 -6 17 -9 30 -6 27 5 28 3 14 -24 -9 -16 -7 -19
15 -19 16 0 25 -6 25 -15 0 -12 -14 -15 -63 -15 l-63 0 4 40 c2 22 8 37 13 34
12 -7 11 3 -1 27 -9 15 -7 21 5 25 8 3 15 12 15 20 0 27 17 14 27 -21z m-82
-35 c3 -5 2 -10 -4 -10 -5 0 -13 5 -16 10 -3 6 -2 10 4 10 5 0 13 -4 16 -10z
m-124 -37 c-9 -18 -61 -27 -61 -11 0 4 6 8 13 8 8 0 22 9 33 21 20 23 31 10
15 -18z m99 1 c0 -8 -4 -14 -10 -14 -5 0 -10 9 -10 21 0 11 5 17 10 14 6 -3
10 -13 10 -21z m30 -28 c0 -3 -4 -8 -10 -11 -5 -3 -10 -1 -10 4 0 6 5 11 10
11 6 0 10 -2 10 -4z m-118 -37 c11 -19 16 -40 12 -55 -6 -25 -12 -28 -38 -18
-19 7 -22 34 -4 34 7 0 3 7 -9 15 -21 15 -21 17 -5 35 23 25 24 24 44 -11z
m260 -27 c2 -16 2 -34 0 -40 -5 -16 -99 -16 -106 1 -5 10 -7 10 -12 0 -6 -13
-46 -18 -56 -7 -9 9 7 59 19 59 6 0 15 3 19 8 4 4 35 7 70 7 60 0 62 -1 66
-28z m-192 -32 c0 -5 -7 -10 -15 -10 -8 0 -15 5 -15 10 0 6 7 10 15 10 8 0 15
-4 15 -10z"/>
<path d="M1071 2754 c0 -11 3 -14 6 -6 3 7 2 16 -1 19 -3 4 -6 -2 -5 -13z"/>
<path d="M953 2652 c1 -22 5 -38 8 -36 5 3 49 -140 49 -160 0 -4 -9 -2 -19 4
-25 13 -31 13 -31 -1 0 -5 4 -8 9 -5 5 3 11 -1 14 -8 3 -8 1 -17 -6 -19 -7 -2
-8 -8 -4 -13 4 -5 12 -2 16 5 5 7 13 11 18 8 17 -11 11 38 -19 148 -17 61 -32
111 -33 113 -2 2 -2 -14 -2 -36z"/>
<path d="M1162 2685 c0 -5 6 -26 13 -45 7 -19 14 -28 14 -20 0 8 -6 29 -14 45
-7 17 -13 26 -13 20z"/>
<path d="M1106 2660 c3 -14 11 -32 16 -40 6 -10 7 -7 2 10 -3 14 -11 32 -16
40 -6 10 -7 7 -2 -10z"/>
<path d="M920 2640 c-9 -6 -10 -10 -3 -10 6 0 15 5 18 10 8 12 4 12 -15 0z"/>
<path d="M1191 2590 c0 -8 4 -24 9 -35 5 -13 9 -14 9 -5 0 8 -4 24 -9 35 -5
13 -9 14 -9 5z"/>
<path d="M945 2580 c3 -5 8 -10 11 -10 2 0 4 5 4 10 0 6 -5 10 -11 10 -5 0 -7
-4 -4 -10z"/>
<path d="M1020 2584 c0 -7 7 -27 15 -45 8 -19 14 -29 15 -23 0 7 -7 27 -15 45
-8 19 -14 29 -15 23z"/>
<path d="M1140 2565 c0 -5 5 -17 10 -25 5 -8 10 -10 10 -5 0 6 -5 17 -10 25
-5 8 -10 11 -10 5z"/>
<path d="M945 2530 c-13 -6 -15 -9 -5 -9 8 0 22 4 30 9 18 12 2 12 -25 0z"/>
<path d="M1060 2520 c0 -5 5 -9 12 -7 6 1 15 -9 19 -23 4 -15 7 -18 8 -8 2 26
-10 48 -25 48 -8 0 -14 -4 -14 -10z"/>
<path d="M1211 2520 c0 -8 4 -24 9 -35 5 -13 9 -14 9 -5 0 8 -4 24 -9 35 -5
13 -9 14 -9 5z"/>
<path d="M956 2499 c2 -4 -3 -9 -11 -13 -8 -3 -15 0 -15 6 0 6 -2 9 -5 6 -3
-3 4 -31 16 -62 12 -31 24 -55 26 -52 2 2 -4 23 -13 46 -14 35 -15 43 -3 50 7
5 17 6 23 3 5 -3 6 -1 2 5 -3 5 0 12 6 15 7 3 3 4 -9 4 -12 -1 -20 -4 -17 -8z"/>
<path d="M1176 2471 c10 -37 33 -88 33 -71 0 8 -9 33 -20 55 -10 22 -16 29
-13 16z"/>
<path d="M1231 2444 c0 -11 3 -14 6 -6 3 7 2 16 -1 19 -3 4 -6 -2 -5 -13z"/>
<path d="M2107 1910 c-38 -39 -73 -68 -78 -64 -6 4 -5 12 3 22 11 13 10 14 -8
4 -12 -6 -31 -27 -42 -46 l-20 -35 21 -14 c19 -13 20 -18 10 -36 -7 -11 -13
-27 -13 -35 0 -7 -8 -37 -17 -66 -16 -50 -16 -54 5 -119 38 -117 31 -126 -68
-76 l-72 36 28 37 c23 31 24 34 5 17 -13 -11 -30 -32 -37 -48 -15 -27 -14 -28
20 -42 20 -8 40 -15 46 -15 5 0 10 -5 10 -12 0 -6 3 -9 6 -5 4 3 22 0 40 -8
32 -13 35 -13 50 10 13 20 13 30 3 65 -10 34 -10 46 1 63 12 20 12 21 -3 8
-14 -11 -18 -11 -23 2 -9 25 0 52 18 51 10 -1 14 4 11 12 -6 17 105 156 119
148 7 -4 8 -2 4 5 -4 6 0 14 9 17 40 16 89 194 52 194 -7 0 -43 -32 -80 -70z"/>
<path d="M2054 1908 l-19 -23 23 19 c21 18 27 26 19 26 -2 0 -12 -10 -23 -22z"/>
<path d="M2160 1775 c0 -8 -4 -15 -10 -15 -5 0 -10 -4 -10 -10 0 -19 17 -10
28 15 7 15 8 25 2 25 -6 0 -10 -7 -10 -15z"/>
<path d="M1947 1749 c4 -13 8 -18 11 -10 2 7 -1 18 -6 23 -8 8 -9 4 -5 -13z"/>
<path d="M1727 1635 c-133 -35 -152 -63 -70 -102 l34 -16 -29 -18 c-37 -22
-48 -39 -27 -39 9 0 13 4 10 10 -3 5 10 17 29 27 20 9 36 21 36 25 0 5 -20 18
-45 29 -25 11 -45 24 -45 29 0 9 51 26 153 51 26 6 47 15 47 20 0 5 -1 9 -2 8
-2 0 -43 -11 -91 -24z"/>
<path d="M2054 1628 l-19 -23 23 19 c21 18 27 26 19 26 -2 0 -12 -10 -23 -22z"/>
<path d="M2017 1586 c-4 -10 -1 -13 9 -9 15 6 19 23 5 23 -5 0 -11 -7 -14 -14z"/>
<path d="M1735 1533 c-18 -14 -18 -15 -2 -9 10 3 23 6 28 6 5 0 9 5 9 10 0 14
-12 12 -35 -7z"/>
<path d="M1688 1483 c7 -3 16 -2 19 1 4 3 -2 6 -13 5 -11 0 -14 -3 -6 -6z"/>
<path d="M1720 1475 c-7 -8 -23 -15 -37 -15 -20 0 -22 -2 -11 -14 7 -7 19 -11
25 -9 7 3 13 1 13 -5 0 -5 7 -13 16 -16 8 -3 13 -2 10 3 -3 5 2 12 12 16 16 6
16 7 -2 20 -10 8 -15 18 -11 24 9 16 -1 13 -15 -4z m10 -31 c0 -8 -5 -12 -10
-9 -6 4 -8 11 -5 16 9 14 15 11 15 -7z"/>
<path d="M1757 1434 c-16 -16 -5 -33 24 -39 31 -7 58 11 41 27 -12 11 -57 20
-65 12z"/>
<path d="M1610 1420 c0 -5 5 -10 11 -10 5 0 7 5 4 10 -3 6 -8 10 -11 10 -2 0
-4 -4 -4 -10z"/>
<path d="M1645 1390 c4 -6 11 -8 16 -5 14 9 11 15 -7 15 -8 0 -12 -5 -9 -10z"/>
<path d="M1844 1358 l-19 -23 23 19 c21 18 27 26 19 26 -2 0 -12 -10 -23 -22z"/>
<path d="M1760 1330 c0 -5 5 -10 10 -10 6 0 10 5 10 10 0 6 -4 10 -10 10 -5 0
-10 -4 -10 -10z"/>
<path d="M1800 1310 c0 -6 7 -10 15 -10 8 0 15 2 15 4 0 2 -7 6 -15 10 -8 3
-15 1 -15 -4z"/>
<path d="M800 1490 c-12 -7 -12 -10 3 -16 21 -8 29 -3 19 13 -5 8 -13 9 -22 3z"/>
<path d="M2430 775 c-10 -12 -10 -15 4 -15 9 0 16 7 16 15 0 8 -2 15 -4 15 -2
0 -9 -7 -16 -15z"/>
<path d="M436 715 c-3 -9 1 -18 10 -22 19 -7 39 11 30 26 -10 16 -33 13 -40
-4z"/>
<path d="M580 696 c0 -8 14 -24 30 -36 32 -23 36 -17 20 24 -10 28 -50 37 -50
12z"/>
</g>
</svg>
